<svg width="257" height="149" viewBox="0 0 257 149" fill="none" xmlns="http://www.w3.org/2000/svg">
<circle cx="128" cy="32" r="32" fill="grey" fill-opacity="0.1"/>
<path d="M146.738 45.0653C143.28 35.3804 139.771 25.7154 136.265 16.0465C135.756 14.6521 134.791 13.9729 133.233 14.0008C129.727 14.0648 126.218 14.0528 122.712 14.0048C121.162 13.9848 120.252 14.692 119.739 16.1144C116.266 25.7194 112.76 35.3085 109.306 44.9215C108.408 47.4186 109.521 48.9369 112.184 48.9689C115.296 49.0088 118.404 48.9769 121.516 48.9769C122.45 48.9769 123.408 49.0208 123.904 47.974C124.37 47.0071 123.742 46.3359 123.261 45.6287C121.432 42.9478 120.327 40.0071 120.037 36.7548C119.91 35.3045 120.53 34.6213 121.941 34.6173C123.924 34.6093 125.912 34.6173 127.895 34.6173C127.895 34.6133 127.895 34.6093 127.895 34.6093C129.815 34.6093 131.734 34.5813 133.65 34.6173C135.713 34.6532 136.229 35.2685 135.927 37.3541C135.482 40.4266 134.361 43.2354 132.621 45.8085C131.373 47.6584 131.969 48.9249 134.131 48.9569C137.438 49.0128 140.748 49.0208 144.055 48.9449C146.448 48.889 147.545 47.3228 146.738 45.0653ZM130.291 25.4717C129.346 26.6064 128.59 27.7651 128.253 29.2514C127.939 30.6378 127.064 30.6698 126.09 29.7348C124.397 28.1007 124.199 25.0802 125.765 22.9985C126.643 21.8319 127.462 20.7251 127.756 19.2029C127.994 17.9843 128.936 17.8684 129.815 18.7634C130.78 19.7383 131.313 20.9249 131.293 22.4432C131.377 23.51 131.027 24.5967 130.291 25.4717Z" fill="grey"/>
</svg>
